Coordinates
version=1
nRows=28
nColumns=38
inDegrees=no

Units are S.I. units (second, meters, Newtons, ...)
If the header above contains a line with 'inDegrees', this indicates whether rotational values are in degrees (yes) or radians (no).

endheader
time	pelvis_tilt	pelvis_list	pelvis_rotation	pelvis_tx	pelvis_ty	pelvis_tz	hip_flexion_r	hip_adduction_r	hip_rotation_r	knee_angle_r	ankle_angle_r	subtalar_angle_r	mtp_angle_r	hip_flexion_l	hip_adduction_l	hip_rotation_l	knee_angle_l	ankle_angle_l	subtalar_angle_l	mtp_angle_l	lumbar_extension	lumbar_bending	lumbar_rotation	arm_flex_r	arm_add_r	arm_rot_r	elbow_flex_r	pro_sup_r	wrist_flex_r	wrist_dev_r	arm_flex_l	arm_add_l	arm_rot_l	elbow_flex_l	pro_sup_l	wrist_flex_l	wrist_dev_l
0	-2.97117	1.18066	1.51872	0.700158	1.60926	1.0315	0.314265	0.118232	-0.168697	0.164212	-0.142923	0	0	0.708062	-0.0891204	0.134837	0.787305	-0.1359	0	0	0.358019	-0.0002402	-0.0281801	-0.155414	-0.278974	0.241133	0.463666	1.32276	0	0	-0.203733	-0.150543	-0.61511	0.387935	1.16643	0	0
0.01	-2.98337	1.17098	1.5233	0.699549	1.59949	1.03047	0.312406	0.118108	-0.152883	0.159448	-0.142889	0	0	0.726034	-0.0862526	0.1171	0.745498	-0.138589	0	0	0.371751	-0.002934	-0.0255106	-0.150733	-0.28373	0.244063	0.475695	1.32522	0	0	-0.208253	-0.146552	-0.621295	0.396926	1.17009	0	0
0.02	-2.98505	1.16616	1.5167	0.699278	1.58913	1.02914	0.305617	0.121325	-0.14479	0.157647	-0.141881	0	0	0.733811	-0.0930868	0.13053	0.662339	-0.161616	0	0	0.376728	6.43988e-05	-0.0214236	-0.150686	-0.292817	0.242646	0.499177	1.32843	0	0	-0.212787	-0.140392	-0.624684	0.41128	1.17275	0	0
0.03	-3.0136	1.15597	1.53545	0.698292	1.57787	1.02859	0.304414	0.114191	-0.1363	0.156019	-0.141977	0	0	0.745842	-0.0845703	0.0703326	0.640166	-0.153081	0	0	0.392705	-0.00926569	-0.0118331	-0.148673	-0.292894	0.240454	0.505536	1.33265	0	0	-0.214572	-0.14134	-0.624583	0.410992	1.17617	0	0
0.04	-3.03712	1.14248	1.54474	0.697375	1.56655	1.02716	0.307639	0.109152	-0.123996	0.157748	-0.13966	0	0	0.75698	-0.0851932	0.0326906	0.573772	-0.169563	0	0	0.41226	-0.0138451	0.000352775	-0.150673	-0.296308	0.236535	0.519467	1.33951	0	0	-0.220997	-0.140086	-0.622798	0.416757	1.18057	0	0
0.05	-3.0506	1.13762	1.54825	0.696707	1.55573	1.02618	0.302154	0.106708	-0.118261	0.159142	-0.13655	0	0	0.760583	-0.0851899	-0.00282884	0.510794	-0.187325	0	0	0.418364	-0.0159468	0.00814582	-0.148749	-0.300184	0.231888	0.53441	1.34759	0	0	-0.223426	-0.138764	-0.6191	0.42349	1.1847	0	0
0.06	-3.05889	1.13888	1.54886	0.696212	1.54502	1.02555	0.290287	0.105506	-0.117117	0.160339	-0.133683	0	0	0.757473	-0.0845808	-0.0334492	0.446629	-0.207374	0	0	0.414762	-0.0168678	0.0120942	-0.142996	-0.304141	0.228185	0.548938	1.35715	0	0	-0.223857	-0.13707	-0.616086	0.430291	1.18799	0	0
0.07	-3.06643	1.14069	1.54874	0.69578	1.53417	1.02481	0.277944	0.104475	-0.117395	0.161991	-0.131206	0	0	0.752052	-0.0829268	-0.0601094	0.379506	-0.228559	0	0	0.410904	-0.0174555	0.0163144	-0.137795	-0.307924	0.223621	0.563256	1.36694	0	0	-0.224351	-0.135275	-0.613757	0.436775	1.19161	0	0
0.08	-3.07346	1.13863	1.54775	0.695449	1.52338	1.02359	0.270572	0.103374	-0.116247	0.165555	-0.128562	0	0	0.74928	-0.0800435	-0.0791649	0.310707	-0.247304	0	0	0.41133	-0.0173999	0.0195424	-0.133341	-0.312317	0.220084	0.578616	1.37549	0	0	-0.226865	-0.132659	-0.613501	0.444158	1.19484	0	0
0.09	-3.07896	1.13504	1.54524	0.695158	1.51253	1.02207	0.265057	0.102775	-0.114555	0.170042	-0.125252	0	0	0.74679	-0.0768227	-0.0927664	0.240943	-0.267154	0	0	0.413163	-0.0166521	0.0215621	-0.12912	-0.316694	0.216137	0.594568	1.38349	0	0	-0.230799	-0.129625	-0.614628	0.452484	1.19798	0	0
0.1	-3.08299	1.13083	1.54139	0.694864	1.50153	1.02036	0.260234	0.102673	-0.113619	0.17518	-0.121933	0	0	0.743405	-0.0733095	-0.101582	0.170218	-0.286435	0	0	0.415486	-0.0154352	0.0225044	-0.124845	-0.3206	0.211596	0.610126	1.38995	0	0	-0.235569	-0.126518	-0.616762	0.46109	1.20046	0	0
0.11	-3.08545	1.12621	1.53585	0.694549	1.49035	1.01849	0.25566	0.103265	-0.112172	0.180633	-0.118734	0	0	0.739467	-0.07039	-0.103945	0.100905	-0.303501	0	0	0.418975	-0.0134197	0.0242818	-0.122353	-0.324807	0.20817	0.62628	1.39768	0	0	-0.240595	-0.12326	-0.619926	0.470051	1.20248	0	0
0.12	-3.08612	1.12195	1.52839	0.694235	1.47904	1.0165	0.250826	0.104556	-0.110412	0.186743	-0.115633	0	0	0.735651	-0.0686407	-0.103157	0.0367404	-0.317242	0	0	0.422204	-0.0103892	0.0266977	-0.121491	-0.329691	0.206255	0.643943	1.40844	0	0	-0.245544	-0.119455	-0.624355	0.479929	1.2036	0	0
0.13	-3.08642	1.11862	1.52088	0.693951	1.46757	1.0145	0.244854	0.105726	-0.108917	0.192323	-0.114047	0	0	0.7342	-0.0676862	-0.108765	0	-0.322323	0	0	0.424361	-0.00741838	0.0294427	-0.119565	-0.333635	0.203825	0.658234	1.41265	0	0	-0.249301	-0.116404	-0.626886	0.488214	1.20382	0	0
0.14	-3.08735	1.1134	1.51375	0.693622	1.45601	1.01221	0.242039	0.106475	-0.105786	0.201604	-0.109098	0	0	0.738837	-0.0674961	-0.122021	0	-0.32693	0	0	0.428535	-0.00451614	0.0328725	-0.121133	-0.336363	0.194061	0.675929	1.42094	0	0	-0.254619	-0.112569	-0.631132	0.499892	1.205	0	0
0.15	-3.08897	1.1075	1.50863	0.693371	1.44413	1.00993	0.239933	0.106547	-0.104297	0.210733	-0.1058	0	0	0.745251	-0.0663093	-0.134768	0	-0.320385	0	0	0.434723	-0.00250004	0.0359964	-0.12266	-0.3374	0.184195	0.688954	1.42704	0	0	-0.259002	-0.110297	-0.632983	0.507607	1.20679	0	0
0.16	-3.08471	1.11117	1.49911	0.693565	1.43233	1.00855	0.229957	0.106653	-0.107411	0.22546	-0.103206	0	0	0.74261	-0.0657395	-0.14415	0	-0.30894	0	0	0.427517	0.00204758	0.0390551	-0.120739	-0.340075	0.175995	0.700489	1.42672	0	0	-0.256033	-0.108	-0.632407	0.509473	1.20815	0	0
0.17	-3.08073	1.13662	1.49191	0.693701	1.42154	1.00903	0.196139	0.107025	-0.105214	0.233166	-0.102109	0	0	0.718886	-0.0622976	-0.150502	0	-0.301286	0	0	0.388568	0.00275252	0.0429721	-0.10697	-0.341996	0.172686	0.707127	1.42424	0	0	-0.241018	-0.107654	-0.628588	0.509911	1.20863	0	0
0.18	-3.082	1.15145	1.48902	0.693767	1.40931	1.0087	0.173967	0.104314	-0.107408	0.245578	-0.100701	0	0	0.704764	-0.0575212	-0.160628	0	-0.285566	0	0	0.364827	0.00193396	0.0443973	-0.0988916	-0.341939	0.167516	0.714633	1.42256	0	0	-0.23453	-0.107182	-0.626947	0.510861	1.20753	0	0
0.19	-3.09996	1.11134	1.50237	0.69393	1.39542	1.00351	0.235496	0.0924172	-0.148439	0.328131	-0.0814527	0	0	0.748245	-0.0494266	-0.164148	0	-0.279626	0	0	0.421947	-0.002422	0.0459402	-0.11789	-0.340849	0.162483	0.723907	1.42264	0	0	-0.259771	-0.106681	-0.624184	0.524244	1.20395	0	0
0.2	-3.10289	1.10517	1.50395	0.693408	1.38251	1.00187	0.211932	0.095586	-0.105526	0.280333	-0.0917282	0	0	0.757702	-0.0450114	-0.160757	0	-0.280978	0	0	0.429074	-0.00509653	0.0458431	-0.117953	-0.337192	0.159762	0.724082	1.4199	0	0	-0.263524	-0.108553	-0.622383	0.527153	1.2035	0	0
0.21	-3.10404	1.10582	1.5042	0.693455	1.36949	1.00085	0.201675	0.0934581	-0.0939763	0.284093	-0.098725	0	0	0.76037	-0.0403533	-0.155229	0	-0.283324	0	0	0.427454	-0.00671595	0.0472644	-0.11744	-0.334845	0.156586	0.723572	1.41692	0	0	-0.26336	-0.1092	-0.62022	0.528517	1.20314	0	0
0.22	-3.10553	1.10809	1.50599	0.693593	1.35604	1.00008	0.191666	0.0900332	-0.0886172	0.293995	-0.106193	0	0	0.76046	-0.035069	-0.146162	0	-0.286484	0	0	0.424597	-0.00919623	0.0487236	-0.117913	-0.331813	0.153198	0.721485	1.41372	0	0	-0.262789	-0.110023	-0.617979	0.528861	1.2023	0	0
0.23	-3.10758	1.11092	1.50864	0.693736	1.34214	0.999437	0.18208	0.0857812	-0.0861329	0.306341	-0.115024	0	0	0.758465	-0.0296063	-0.133663	0	-0.288574	0	0	0.422047	-0.0121795	0.0506149	-0.119351	-0.328154	0.150258	0.71747	1.41073	0	0	-0.262803	-0.110852	-0.616431	0.528678	1.20082	0	0
0.24	-3.10995	1.11642	1.51152	0.693887	1.32782	0.999087	0.171245	0.0805791	-0.0871454	0.3224	-0.136074	0	0	0.752678	-0.0235755	-0.119258	0.00647793	-0.288744	0	0	0.417058	-0.01562	0.0535683	-0.120192	-0.323255	0.146964	0.709691	1.40636	0	0	-0.2633	-0.112319	-0.612157	0.528898	1.19686	0	0
0.25	-3.11374	1.11875	1.51403	0.693915	1.31318	0.998553	0.165226	0.0748176	-0.0855592	0.341077	-0.154664	0	0	0.752274	-0.0185271	-0.112175	0.0360162	-0.291559	0	0	0.417065	-0.0186556	0.0573612	-0.121617	-0.318526	0.146971	0.699642	1.40388	0	0	-0.266422	-0.113524	-0.608606	0.529157	1.19307	0	0
0.26	-3.12032	1.11737	1.51794	0.693773	1.29841	0.997946	0.165771	0.0679135	-0.0805254	0.364582	-0.173244	0	0	0.755624	-0.0138745	-0.103879	0.0615571	-0.305843	0	0	0.422748	-0.0223625	0.0620761	-0.122714	-0.312786	0.149871	0.685407	1.40253	0	0	-0.271208	-0.115083	-0.605704	0.528247	1.18952	0	0
0.27	-3.12953	1.11047	1.52426	0.693469	1.28366	0.997271	0.175507	0.0598907	-0.0720967	0.394164	-0.195344	0	0	0.764503	-0.0108266	-0.0942613	0.0854412	-0.325313	0	0	0.436278	-0.0271409	0.06608	-0.12285	-0.305735	0.157524	0.66563	1.4037	0	0	-0.27801	-0.117485	-0.602752	0.52541	1.18518	0	0
